<svg width="364" height="94" viewBox="0 0 364 94" fill="none" xmlns="http://www.w3.org/2000/svg">
<rect x="5" y="12" width="70" height="70" stroke="#EB5E28" stroke-width="10"/>
<rect x="5" y="12" width="50" height="50" stroke="#EB5E28" stroke-width="10"/>
<rect x="5" y="12" width="30" height="30" stroke="#EB5E28" stroke-width="10"/>
<path d="M107.68 78.3C106.16 78.3 104.94 77.98 104.02 77.34C103.12 76.68 102.46 75.73 102.04 74.49C101.64 73.25 101.44 71.76 101.44 70.02V61.89C101.44 60.11 101.62 58.6 101.98 57.36C102.36 56.1 103.02 55.14 103.96 54.48C104.92 53.82 106.25 53.49 107.95 53.49C109.47 53.49 110.69 53.75 111.61 54.27C112.55 54.77 113.23 55.55 113.65 56.61C114.07 57.65 114.28 58.97 114.28 60.57V61.47H111.1V60.72C111.1 59.66 111.03 58.8 110.89 58.14C110.75 57.46 110.46 56.96 110.02 56.64C109.6 56.3 108.93 56.13 108.01 56.13C107.01 56.13 106.28 56.36 105.82 56.82C105.38 57.28 105.1 57.91 104.98 58.71C104.88 59.49 104.83 60.38 104.83 61.38V70.38C104.83 71.54 104.91 72.51 105.07 73.29C105.25 74.07 105.58 74.65 106.06 75.03C106.54 75.41 107.22 75.6 108.1 75.6C108.98 75.6 109.66 75.39 110.14 74.97C110.62 74.55 110.95 73.93 111.13 73.11C111.31 72.29 111.4 71.27 111.4 70.05V68.37H108.31V65.97H114.46V78H112.33L112 75.21C111.68 76.11 111.18 76.85 110.5 77.43C109.82 78.01 108.88 78.3 107.68 78.3ZM117.765 78V60.66H120.975V63.12C121.615 62.06 122.255 61.35 122.895 60.99C123.535 60.63 124.175 60.45 124.815 60.45C124.895 60.45 124.965 60.45 125.025 60.45C125.105 60.45 125.205 60.46 125.325 60.48V64.02C125.085 63.92 124.805 63.84 124.485 63.78C124.185 63.7 123.875 63.66 123.555 63.66C123.055 63.66 122.595 63.78 122.175 64.02C121.775 64.24 121.375 64.68 120.975 65.34V78H117.765ZM130.433 78.24C129.753 78.24 129.153 78.05 128.633 77.67C128.113 77.27 127.703 76.77 127.403 76.17C127.103 75.55 126.953 74.9 126.953 74.22C126.953 73.14 127.133 72.23 127.493 71.49C127.853 70.75 128.343 70.13 128.963 69.63C129.603 69.11 130.333 68.66 131.153 68.28C131.993 67.9 132.873 67.53 133.793 67.17V65.94C133.793 65.24 133.753 64.66 133.673 64.2C133.593 63.74 133.423 63.4 133.163 63.18C132.923 62.94 132.553 62.82 132.053 62.82C131.613 62.82 131.253 62.92 130.973 63.12C130.713 63.32 130.523 63.61 130.403 63.99C130.283 64.35 130.223 64.78 130.223 65.28V66.15L127.043 66.03C127.083 64.11 127.523 62.7 128.363 61.8C129.203 60.88 130.503 60.42 132.263 60.42C133.983 60.42 135.203 60.89 135.923 61.83C136.643 62.77 137.003 64.13 137.003 65.91V73.83C137.003 74.37 137.013 74.89 137.033 75.39C137.073 75.89 137.113 76.36 137.153 76.8C137.213 77.22 137.263 77.62 137.303 78H134.363C134.303 77.68 134.223 77.28 134.123 76.8C134.043 76.3 133.983 75.85 133.943 75.45C133.743 76.13 133.353 76.77 132.773 77.37C132.213 77.95 131.433 78.24 130.433 78.24ZM131.693 75.48C132.013 75.48 132.313 75.39 132.593 75.21C132.873 75.03 133.123 74.83 133.343 74.61C133.563 74.37 133.713 74.18 133.793 74.04V69.12C133.293 69.4 132.823 69.68 132.383 69.96C131.943 70.24 131.553 70.54 131.213 70.86C130.893 71.16 130.633 71.51 130.433 71.91C130.253 72.29 130.163 72.73 130.163 73.23C130.163 73.93 130.293 74.48 130.553 74.88C130.813 75.28 131.193 75.48 131.693 75.48ZM140.087 83.7V60.66H143.297V62.04C143.677 61.6 144.137 61.22 144.677 60.9C145.217 60.58 145.857 60.42 146.597 60.42C147.497 60.42 148.207 60.66 148.727 61.14C149.267 61.6 149.667 62.19 149.927 62.91C150.187 63.61 150.357 64.33 150.437 65.07C150.517 65.79 150.557 66.41 150.557 66.93V71.13C150.557 72.35 150.437 73.51 150.197 74.61C149.957 75.69 149.517 76.57 148.877 77.25C148.257 77.91 147.377 78.24 146.237 78.24C145.617 78.24 145.067 78.09 144.587 77.79C144.107 77.47 143.677 77.11 143.297 76.71V83.7H140.087ZM145.607 75.72C146.167 75.72 146.567 75.52 146.807 75.12C147.047 74.7 147.197 74.14 147.257 73.44C147.317 72.74 147.347 71.97 147.347 71.13V66.93C147.347 66.21 147.307 65.55 147.227 64.95C147.147 64.33 146.977 63.84 146.717 63.48C146.457 63.12 146.047 62.94 145.487 62.94C145.067 62.94 144.667 63.03 144.287 63.21C143.907 63.39 143.577 63.6 143.297 63.84V74.94C143.597 75.16 143.937 75.35 144.317 75.51C144.697 75.65 145.127 75.72 145.607 75.72ZM153.565 78V53.7H156.775V62.46C157.355 61.9 158.005 61.42 158.725 61.02C159.445 60.62 160.245 60.42 161.125 60.42C161.805 60.42 162.325 60.6 162.685 60.96C163.065 61.32 163.325 61.77 163.465 62.31C163.625 62.85 163.705 63.4 163.705 63.96V78H160.495V64.89C160.495 64.27 160.405 63.79 160.225 63.45C160.045 63.11 159.675 62.94 159.115 62.94C158.735 62.94 158.335 63.05 157.915 63.27C157.515 63.49 157.135 63.76 156.775 64.08V78H153.565ZM167.045 78V60.66H170.255V78H167.045ZM167.045 58.08V54.72H170.255V58.08H167.045ZM178.43 78.24C177.01 78.24 175.93 77.96 175.19 77.4C174.47 76.82 173.98 76.01 173.72 74.97C173.48 73.93 173.36 72.72 173.36 71.34V67.35C173.36 65.89 173.49 64.65 173.75 63.63C174.01 62.59 174.5 61.8 175.22 61.26C175.96 60.7 177.03 60.42 178.43 60.42C179.69 60.42 180.66 60.63 181.34 61.05C182.04 61.45 182.52 62.06 182.78 62.88C183.04 63.68 183.17 64.68 183.17 65.88V66.9H180.26V65.85C180.26 65.09 180.21 64.49 180.11 64.05C180.01 63.61 179.83 63.29 179.57 63.09C179.31 62.89 178.94 62.79 178.46 62.79C177.94 62.79 177.54 62.91 177.26 63.15C176.98 63.39 176.79 63.8 176.69 64.38C176.61 64.94 176.57 65.71 176.57 66.69V72.15C176.57 73.63 176.71 74.62 176.99 75.12C177.27 75.62 177.77 75.87 178.49 75.87C179.03 75.87 179.42 75.75 179.66 75.51C179.92 75.25 180.08 74.89 180.14 74.43C180.22 73.97 180.26 73.45 180.26 72.87V71.46H183.17V72.66C183.17 73.82 183.03 74.82 182.75 75.66C182.49 76.5 182.01 77.14 181.31 77.58C180.63 78.02 179.67 78.24 178.43 78.24ZM193.15 78V53.7H198.43C200.23 53.7 201.65 53.98 202.69 54.54C203.75 55.08 204.5 55.9 204.94 57C205.4 58.1 205.63 59.47 205.63 61.11V70.05C205.63 71.77 205.4 73.22 204.94 74.4C204.5 75.58 203.77 76.48 202.75 77.1C201.75 77.7 200.4 78 198.7 78H193.15ZM196.54 75.57H198.46C199.7 75.57 200.58 75.33 201.1 74.85C201.62 74.37 201.93 73.67 202.03 72.75C202.15 71.83 202.21 70.72 202.21 69.42V61.53C202.21 60.27 202.13 59.25 201.97 58.47C201.81 57.69 201.46 57.12 200.92 56.76C200.38 56.4 199.53 56.22 198.37 56.22H196.54V75.57ZM213.5 78.24C212.14 78.24 211.09 77.98 210.35 77.46C209.61 76.92 209.09 76.14 208.79 75.12C208.51 74.08 208.37 72.81 208.37 71.31V67.35C208.37 65.81 208.52 64.53 208.82 63.51C209.12 62.49 209.64 61.72 210.38 61.2C211.14 60.68 212.18 60.42 213.5 60.42C214.96 60.42 216.03 60.72 216.71 61.32C217.41 61.92 217.87 62.79 218.09 63.93C218.31 65.05 218.42 66.4 218.42 67.98V69.39H211.58V72.87C211.58 73.57 211.64 74.14 211.76 74.58C211.9 75.02 212.11 75.35 212.39 75.57C212.69 75.77 213.07 75.87 213.53 75.87C214.01 75.87 214.37 75.76 214.61 75.54C214.87 75.3 215.04 74.97 215.12 74.55C215.22 74.11 215.27 73.6 215.27 73.02V71.97H218.39V72.63C218.39 74.37 218.02 75.74 217.28 76.74C216.54 77.74 215.28 78.24 213.5 78.24ZM211.58 67.65H215.27V66.09C215.27 65.37 215.23 64.77 215.15 64.29C215.07 63.79 214.9 63.42 214.64 63.18C214.4 62.92 214.01 62.79 213.47 62.79C212.95 62.79 212.55 62.91 212.27 63.15C212.01 63.39 211.83 63.8 211.73 64.38C211.63 64.94 211.58 65.72 211.58 66.72V67.65ZM225.347 78.24C223.927 78.24 222.787 77.8 221.927 76.92C221.067 76.02 220.577 74.84 220.457 73.38L223.127 72.57C223.287 73.67 223.557 74.5 223.937 75.06C224.317 75.6 224.877 75.87 225.617 75.87C226.197 75.87 226.637 75.71 226.937 75.39C227.237 75.05 227.387 74.6 227.387 74.04C227.387 73.54 227.277 73.09 227.057 72.69C226.837 72.29 226.477 71.88 225.977 71.46L223.007 68.91C222.407 68.39 221.897 67.81 221.477 67.17C221.077 66.53 220.877 65.7 220.877 64.68C220.877 63.76 221.057 62.99 221.417 62.37C221.797 61.73 222.317 61.25 222.977 60.93C223.657 60.59 224.447 60.42 225.347 60.42C226.727 60.42 227.777 60.87 228.497 61.77C229.237 62.65 229.657 63.72 229.757 64.98L227.597 65.79C227.517 65.19 227.397 64.67 227.237 64.23C227.077 63.77 226.857 63.42 226.577 63.18C226.297 62.92 225.927 62.79 225.467 62.79C224.947 62.79 224.527 62.97 224.207 63.33C223.907 63.67 223.757 64.08 223.757 64.56C223.757 64.86 223.817 65.16 223.937 65.46C224.077 65.74 224.307 66.02 224.627 66.3L227.687 69.12C228.107 69.5 228.497 69.91 228.857 70.35C229.237 70.79 229.547 71.29 229.787 71.85C230.027 72.41 230.147 73.06 230.147 73.8C230.147 74.78 229.947 75.6 229.547 76.26C229.147 76.92 228.587 77.42 227.867 77.76C227.147 78.08 226.307 78.24 225.347 78.24ZM232.758 78V60.66H235.968V78H232.758ZM232.758 58.08V54.72H235.968V58.08H232.758ZM243.903 83.37C242.863 83.37 241.923 83.26 241.083 83.04C240.243 82.82 239.583 82.47 239.103 81.99C238.623 81.51 238.383 80.88 238.383 80.1C238.383 79.54 238.503 79.05 238.743 78.63C238.983 78.21 239.293 77.85 239.673 77.55C240.053 77.23 240.453 76.97 240.873 76.77C240.313 76.61 239.893 76.36 239.613 76.02C239.333 75.66 239.193 75.29 239.193 74.91C239.193 74.27 239.363 73.72 239.703 73.26C240.043 72.8 240.513 72.3 241.113 71.76C240.453 71.26 239.953 70.62 239.613 69.84C239.273 69.06 239.103 67.98 239.103 66.6C239.103 65.24 239.283 64.11 239.643 63.21C240.023 62.29 240.573 61.6 241.293 61.14C242.033 60.66 242.933 60.42 243.993 60.42C244.933 60.42 245.683 60.58 246.243 60.9C246.823 61.22 247.263 61.7 247.563 62.34C247.663 62.18 247.933 61.91 248.373 61.53C248.813 61.13 249.323 60.8 249.903 60.54L250.383 60.33L251.193 62.4C250.933 62.44 250.583 62.54 250.143 62.7C249.723 62.84 249.323 62.99 248.943 63.15C248.583 63.29 248.353 63.41 248.253 63.51C248.393 63.85 248.513 64.34 248.613 64.98C248.733 65.62 248.793 66.19 248.793 66.69C248.793 67.87 248.643 68.91 248.343 69.81C248.043 70.71 247.543 71.42 246.843 71.94C246.163 72.44 245.213 72.69 243.993 72.69C243.733 72.69 243.453 72.67 243.153 72.63C242.853 72.59 242.583 72.54 242.343 72.48C242.223 72.66 242.093 72.87 241.953 73.11C241.833 73.35 241.773 73.58 241.773 73.8C241.773 74.02 241.883 74.2 242.103 74.34C242.343 74.46 242.713 74.54 243.213 74.58L245.913 74.82C247.273 74.94 248.283 75.35 248.943 76.05C249.603 76.75 249.933 77.75 249.933 79.05C249.933 79.99 249.713 80.78 249.273 81.42C248.833 82.08 248.163 82.57 247.263 82.89C246.383 83.21 245.263 83.37 243.903 83.37ZM244.143 80.85C245.283 80.85 246.123 80.71 246.663 80.43C247.203 80.17 247.473 79.74 247.473 79.14C247.473 78.78 247.403 78.48 247.263 78.24C247.143 78 246.913 77.81 246.573 77.67C246.233 77.53 245.743 77.43 245.103 77.37L242.373 77.13C242.153 77.35 241.943 77.57 241.743 77.79C241.543 78.01 241.383 78.24 241.263 78.48C241.143 78.74 241.083 79.01 241.083 79.29C241.083 79.81 241.303 80.2 241.743 80.46C242.183 80.72 242.983 80.85 244.143 80.85ZM243.993 70.44C244.453 70.44 244.813 70.36 245.073 70.2C245.353 70.02 245.563 69.77 245.703 69.45C245.843 69.11 245.933 68.7 245.973 68.22C246.033 67.74 246.063 67.2 246.063 66.6C246.063 66 246.033 65.46 245.973 64.98C245.933 64.48 245.843 64.06 245.703 63.72C245.583 63.36 245.383 63.09 245.103 62.91C244.843 62.73 244.483 62.64 244.023 62.64C243.583 62.64 243.213 62.73 242.913 62.91C242.633 63.09 242.423 63.35 242.283 63.69C242.143 64.01 242.043 64.42 241.983 64.92C241.923 65.4 241.893 65.96 241.893 66.6C241.893 67.14 241.913 67.65 241.953 68.13C242.013 68.59 242.113 68.99 242.253 69.33C242.413 69.67 242.633 69.94 242.913 70.14C243.193 70.34 243.553 70.44 243.993 70.44ZM252.44 78V60.66H255.65V62.37C256.23 61.83 256.87 61.37 257.57 60.99C258.27 60.61 259.04 60.42 259.88 60.42C260.58 60.42 261.11 60.6 261.47 60.96C261.85 61.32 262.11 61.77 262.25 62.31C262.41 62.85 262.49 63.4 262.49 63.96V78H259.28V64.89C259.28 64.27 259.19 63.79 259.01 63.45C258.83 63.11 258.46 62.94 257.9 62.94C257.54 62.94 257.16 63.05 256.76 63.27C256.38 63.47 256.01 63.72 255.65 64.02V78H252.44ZM270.424 78.24C269.064 78.24 268.014 77.98 267.274 77.46C266.534 76.92 266.014 76.14 265.714 75.12C265.434 74.08 265.294 72.81 265.294 71.31V67.35C265.294 65.81 265.444 64.53 265.744 63.51C266.044 62.49 266.564 61.72 267.304 61.2C268.064 60.68 269.104 60.42 270.424 60.42C271.884 60.42 272.954 60.72 273.634 61.32C274.334 61.92 274.794 62.79 275.014 63.93C275.234 65.05 275.344 66.4 275.344 67.98V69.39H268.504V72.87C268.504 73.57 268.564 74.14 268.684 74.58C268.824 75.02 269.034 75.35 269.314 75.57C269.614 75.77 269.994 75.87 270.454 75.87C270.934 75.87 271.294 75.76 271.534 75.54C271.794 75.3 271.964 74.97 272.044 74.55C272.144 74.11 272.194 73.6 272.194 73.02V71.97H275.314V72.63C275.314 74.37 274.944 75.74 274.204 76.74C273.464 77.74 272.204 78.24 270.424 78.24ZM268.504 67.65H272.194V66.09C272.194 65.37 272.154 64.77 272.074 64.29C271.994 63.79 271.824 63.42 271.564 63.18C271.324 62.92 270.934 62.79 270.394 62.79C269.874 62.79 269.474 62.91 269.194 63.15C268.934 63.39 268.754 63.8 268.654 64.38C268.554 64.94 268.504 65.72 268.504 66.72V67.65ZM278.341 78V60.66H281.551V63.12C282.191 62.06 282.831 61.35 283.471 60.99C284.111 60.63 284.751 60.45 285.391 60.45C285.471 60.45 285.541 60.45 285.601 60.45C285.681 60.45 285.781 60.46 285.901 60.48V64.02C285.661 63.92 285.381 63.84 285.061 63.78C284.761 63.7 284.451 63.66 284.131 63.66C283.631 63.66 283.171 63.78 282.751 64.02C282.351 64.24 281.951 64.68 281.551 65.34V78H278.341Z" fill="#FFFCF2"/>
<path d="M106.08 48V18.96H100.6V15.6H115.92V18.96H110.6V48H106.08ZM124.575 48.32C122.868 48.32 121.521 47.9733 120.535 47.28C119.548 46.5867 118.841 45.6 118.415 44.32C118.015 43.04 117.815 41.5333 117.815 39.8V33.08C117.815 31.3467 118.015 29.84 118.415 28.56C118.841 27.28 119.548 26.2933 120.535 25.6C121.521 24.9067 122.868 24.56 124.575 24.56C126.281 24.56 127.615 24.9067 128.575 25.6C129.561 26.2933 130.255 27.28 130.655 28.56C131.081 29.84 131.295 31.3467 131.295 33.08V39.8C131.295 41.5333 131.081 43.04 130.655 44.32C130.255 45.6 129.561 46.5867 128.575 47.28C127.615 47.9733 126.281 48.32 124.575 48.32ZM124.575 45.16C125.401 45.16 125.975 44.92 126.295 44.44C126.641 43.96 126.841 43.3333 126.895 42.56C126.975 41.76 127.015 40.9333 127.015 40.08V32.84C127.015 31.96 126.975 31.1333 126.895 30.36C126.841 29.5867 126.641 28.96 126.295 28.48C125.975 27.9733 125.401 27.72 124.575 27.72C123.748 27.72 123.161 27.9733 122.815 28.48C122.468 28.96 122.255 29.5867 122.175 30.36C122.121 31.1333 122.095 31.96 122.095 32.84V40.08C122.095 40.9333 122.121 41.76 122.175 42.56C122.255 43.3333 122.468 43.96 122.815 44.44C123.161 44.92 123.748 45.16 124.575 45.16ZM135.207 48V24.88H139.167V27.08C139.94 26.2 140.794 25.5467 141.727 25.12C142.66 24.6933 143.62 24.48 144.607 24.48C145.46 24.48 146.22 24.6933 146.887 25.12C147.58 25.5467 148.074 26.3067 148.367 27.4C149.194 26.3867 150.087 25.6533 151.047 25.2C152.034 24.72 153.06 24.48 154.127 24.48C154.874 24.48 155.554 24.6667 156.167 25.04C156.78 25.3867 157.274 25.96 157.647 26.76C158.02 27.5333 158.207 28.56 158.207 29.84V48H154.287V30.12C154.287 29 154.1 28.2533 153.727 27.88C153.38 27.48 152.9 27.28 152.287 27.28C151.7 27.28 151.087 27.4533 150.447 27.8C149.807 28.12 149.22 28.5733 148.687 29.16C148.687 29.2667 148.687 29.3733 148.687 29.48C148.687 29.5867 148.687 29.7067 148.687 29.84V48H144.767V30.12C144.767 29 144.58 28.2533 144.207 27.88C143.86 27.48 143.38 27.28 142.767 27.28C142.18 27.28 141.567 27.4533 140.927 27.8C140.314 28.12 139.727 28.5733 139.167 29.16V48H135.207ZM171.895 48V15.6H176.415V29.6H184.735V15.6H189.255V48H184.735V32.84H176.415V48H171.895ZM200.317 48.32C198.61 48.32 197.264 47.9733 196.277 47.28C195.29 46.5867 194.584 45.6 194.157 44.32C193.757 43.04 193.557 41.5333 193.557 39.8V33.08C193.557 31.3467 193.757 29.84 194.157 28.56C194.584 27.28 195.29 26.2933 196.277 25.6C197.264 24.9067 198.61 24.56 200.317 24.56C202.024 24.56 203.357 24.9067 204.317 25.6C205.304 26.2933 205.997 27.28 206.397 28.56C206.824 29.84 207.037 31.3467 207.037 33.08V39.8C207.037 41.5333 206.824 43.04 206.397 44.32C205.997 45.6 205.304 46.5867 204.317 47.28C203.357 47.9733 202.024 48.32 200.317 48.32ZM200.317 45.16C201.144 45.16 201.717 44.92 202.037 44.44C202.384 43.96 202.584 43.3333 202.637 42.56C202.717 41.76 202.757 40.9333 202.757 40.08V32.84C202.757 31.96 202.717 31.1333 202.637 30.36C202.584 29.5867 202.384 28.96 202.037 28.48C201.717 27.9733 201.144 27.72 200.317 27.72C199.49 27.72 198.904 27.9733 198.557 28.48C198.21 28.96 197.997 29.5867 197.917 30.36C197.864 31.1333 197.837 31.96 197.837 32.84V40.08C197.837 40.9333 197.864 41.76 197.917 42.56C197.997 43.3333 198.21 43.96 198.557 44.44C198.904 44.92 199.49 45.16 200.317 45.16ZM211.349 48V15.6H215.629V48H211.349ZM224.25 48.32C223.343 48.32 222.543 48.0667 221.85 47.56C221.156 47.0267 220.61 46.36 220.21 45.56C219.81 44.7333 219.61 43.8667 219.61 42.96C219.61 41.52 219.85 40.3067 220.33 39.32C220.81 38.3333 221.463 37.5067 222.29 36.84C223.143 36.1467 224.116 35.5467 225.21 35.04C226.33 34.5333 227.503 34.04 228.73 33.56V31.92C228.73 30.9867 228.676 30.2133 228.57 29.6C228.463 28.9867 228.236 28.5333 227.89 28.24C227.57 27.92 227.076 27.76 226.41 27.76C225.823 27.76 225.343 27.8933 224.97 28.16C224.623 28.4267 224.37 28.8133 224.21 29.32C224.05 29.8 223.97 30.3733 223.97 31.04V32.2L219.73 32.04C219.783 29.48 220.37 27.6 221.49 26.4C222.61 25.1733 224.343 24.56 226.69 24.56C228.983 24.56 230.61 25.1867 231.57 26.44C232.53 27.6933 233.01 29.5067 233.01 31.88V42.44C233.01 43.16 233.023 43.8533 233.05 44.52C233.103 45.1867 233.156 45.8133 233.21 46.4C233.29 46.96 233.356 47.4933 233.41 48H229.49C229.41 47.5733 229.303 47.04 229.17 46.4C229.063 45.7333 228.983 45.1333 228.93 44.6C228.663 45.5067 228.143 46.36 227.37 47.16C226.623 47.9333 225.583 48.32 224.25 48.32ZM225.93 44.64C226.356 44.64 226.756 44.52 227.13 44.28C227.503 44.04 227.836 43.7733 228.13 43.48C228.423 43.16 228.623 42.9067 228.73 42.72V36.16C228.063 36.5333 227.436 36.9067 226.85 37.28C226.263 37.6533 225.743 38.0533 225.29 38.48C224.863 38.88 224.516 39.3467 224.25 39.88C224.01 40.3867 223.89 40.9733 223.89 41.64C223.89 42.5733 224.063 43.3067 224.41 43.84C224.756 44.3733 225.263 44.64 225.93 44.64ZM237.121 48V24.88H241.401V27.16C242.174 26.44 243.028 25.8267 243.961 25.32C244.894 24.8133 245.921 24.56 247.041 24.56C247.974 24.56 248.681 24.8 249.161 25.28C249.668 25.76 250.014 26.36 250.201 27.08C250.414 27.8 250.521 28.5333 250.521 29.28V48H246.241V30.52C246.241 29.6933 246.121 29.0533 245.881 28.6C245.641 28.1467 245.148 27.92 244.401 27.92C243.921 27.92 243.414 28.0667 242.881 28.36C242.374 28.6267 241.881 28.96 241.401 29.36V48H237.121ZM260.059 48.32C258.112 48.32 256.659 47.6133 255.699 46.2C254.739 44.76 254.259 42.3333 254.259 38.92V34.44C254.259 32.68 254.406 31.0533 254.699 29.56C254.992 28.04 255.539 26.8267 256.339 25.92C257.166 25.0133 258.366 24.56 259.939 24.56C260.712 24.56 261.419 24.7333 262.059 25.08C262.699 25.4267 263.272 25.8533 263.779 26.36V15.6H268.059V48H263.779V46.52C263.272 47.0533 262.712 47.4933 262.099 47.84C261.512 48.16 260.832 48.32 260.059 48.32ZM261.139 44.96C261.539 44.96 261.966 44.8933 262.419 44.76C262.872 44.6 263.326 44.3733 263.779 44.08V28.92C263.406 28.6533 262.992 28.4267 262.539 28.24C262.086 28.0267 261.592 27.92 261.059 27.92C260.072 27.92 259.406 28.4 259.059 29.36C258.712 30.2933 258.539 31.4267 258.539 32.76V39.28C258.539 40.3467 258.592 41.32 258.699 42.2C258.832 43.0533 259.086 43.7333 259.459 44.24C259.832 44.72 260.392 44.96 261.139 44.96Z" fill="#FFFCF2"/>
</svg>
