<svg width="384" height="100" viewBox="0 0 384 100" fill="none" xmlns="http://www.w3.org/2000/svg">
<rect x="5" y="5" width="90" height="90" stroke="#EB5E28" stroke-width="10"/>
<rect x="5" y="5" width="70" height="70" stroke="#EB5E28" stroke-width="10"/>
<rect x="5" y="5" width="50" height="50" stroke="#EB5E28" stroke-width="10"/>
<path d="M127.68 84.3C126.16 84.3 124.94 83.98 124.02 83.34C123.12 82.68 122.46 81.73 122.04 80.49C121.64 79.25 121.44 77.76 121.44 76.02V67.89C121.44 66.11 121.62 64.6 121.98 63.36C122.36 62.1 123.02 61.14 123.96 60.48C124.92 59.82 126.25 59.49 127.95 59.49C129.47 59.49 130.69 59.75 131.61 60.27C132.55 60.77 133.23 61.55 133.65 62.61C134.07 63.65 134.28 64.97 134.28 66.57V67.47H131.1V66.72C131.1 65.66 131.03 64.8 130.89 64.14C130.75 63.46 130.46 62.96 130.02 62.64C129.6 62.3 128.93 62.13 128.01 62.13C127.01 62.13 126.28 62.36 125.82 62.82C125.38 63.28 125.1 63.91 124.98 64.71C124.88 65.49 124.83 66.38 124.83 67.38V76.38C124.83 77.54 124.91 78.51 125.07 79.29C125.25 80.07 125.58 80.65 126.06 81.03C126.54 81.41 127.22 81.6 128.1 81.6C128.98 81.6 129.66 81.39 130.14 80.97C130.62 80.55 130.95 79.93 131.13 79.11C131.31 78.29 131.4 77.27 131.4 76.05V74.37H128.31V71.97H134.46V84H132.33L132 81.21C131.68 82.11 131.18 82.85 130.5 83.43C129.82 84.01 128.88 84.3 127.68 84.3ZM137.765 84V66.66H140.975V69.12C141.615 68.06 142.255 67.35 142.895 66.99C143.535 66.63 144.175 66.45 144.815 66.45C144.895 66.45 144.965 66.45 145.025 66.45C145.105 66.45 145.205 66.46 145.325 66.48V70.02C145.085 69.92 144.805 69.84 144.485 69.78C144.185 69.7 143.875 69.66 143.555 69.66C143.055 69.66 142.595 69.78 142.175 70.02C141.775 70.24 141.375 70.68 140.975 71.34V84H137.765ZM150.433 84.24C149.753 84.24 149.153 84.05 148.633 83.67C148.113 83.27 147.703 82.77 147.403 82.17C147.103 81.55 146.953 80.9 146.953 80.22C146.953 79.14 147.133 78.23 147.493 77.49C147.853 76.75 148.343 76.13 148.963 75.63C149.603 75.11 150.333 74.66 151.153 74.28C151.993 73.9 152.873 73.53 153.793 73.17V71.94C153.793 71.24 153.753 70.66 153.673 70.2C153.593 69.74 153.423 69.4 153.163 69.18C152.923 68.94 152.553 68.82 152.053 68.82C151.613 68.82 151.253 68.92 150.973 69.12C150.713 69.32 150.523 69.61 150.403 69.99C150.283 70.35 150.223 70.78 150.223 71.28V72.15L147.043 72.03C147.083 70.11 147.523 68.7 148.363 67.8C149.203 66.88 150.503 66.42 152.263 66.42C153.983 66.42 155.203 66.89 155.923 67.83C156.643 68.77 157.003 70.13 157.003 71.91V79.83C157.003 80.37 157.013 80.89 157.033 81.39C157.073 81.89 157.113 82.36 157.153 82.8C157.213 83.22 157.263 83.62 157.303 84H154.363C154.303 83.68 154.223 83.28 154.123 82.8C154.043 82.3 153.983 81.85 153.943 81.45C153.743 82.13 153.353 82.77 152.773 83.37C152.213 83.95 151.433 84.24 150.433 84.24ZM151.693 81.48C152.013 81.48 152.313 81.39 152.593 81.21C152.873 81.03 153.123 80.83 153.343 80.61C153.563 80.37 153.713 80.18 153.793 80.04V75.12C153.293 75.4 152.823 75.68 152.383 75.96C151.943 76.24 151.553 76.54 151.213 76.86C150.893 77.16 150.633 77.51 150.433 77.91C150.253 78.29 150.163 78.73 150.163 79.23C150.163 79.93 150.293 80.48 150.553 80.88C150.813 81.28 151.193 81.48 151.693 81.48ZM160.087 89.7V66.66H163.297V68.04C163.677 67.6 164.137 67.22 164.677 66.9C165.217 66.58 165.857 66.42 166.597 66.42C167.497 66.42 168.207 66.66 168.727 67.14C169.267 67.6 169.667 68.19 169.927 68.91C170.187 69.61 170.357 70.33 170.437 71.07C170.517 71.79 170.557 72.41 170.557 72.93V77.13C170.557 78.35 170.437 79.51 170.197 80.61C169.957 81.69 169.517 82.57 168.877 83.25C168.257 83.91 167.377 84.24 166.237 84.24C165.617 84.24 165.067 84.09 164.587 83.79C164.107 83.47 163.677 83.11 163.297 82.71V89.7H160.087ZM165.607 81.72C166.167 81.72 166.567 81.52 166.807 81.12C167.047 80.7 167.197 80.14 167.257 79.44C167.317 78.74 167.347 77.97 167.347 77.13V72.93C167.347 72.21 167.307 71.55 167.227 70.95C167.147 70.33 166.977 69.84 166.717 69.48C166.457 69.12 166.047 68.94 165.487 68.94C165.067 68.94 164.667 69.03 164.287 69.21C163.907 69.39 163.577 69.6 163.297 69.84V80.94C163.597 81.16 163.937 81.35 164.317 81.51C164.697 81.65 165.127 81.72 165.607 81.72ZM173.565 84V59.7H176.775V68.46C177.355 67.9 178.005 67.42 178.725 67.02C179.445 66.62 180.245 66.42 181.125 66.42C181.805 66.42 182.325 66.6 182.685 66.96C183.065 67.32 183.325 67.77 183.465 68.31C183.625 68.85 183.705 69.4 183.705 69.96V84H180.495V70.89C180.495 70.27 180.405 69.79 180.225 69.45C180.045 69.11 179.675 68.94 179.115 68.94C178.735 68.94 178.335 69.05 177.915 69.27C177.515 69.49 177.135 69.76 176.775 70.08V84H173.565ZM187.045 84V66.66H190.255V84H187.045ZM187.045 64.08V60.72H190.255V64.08H187.045ZM198.43 84.24C197.01 84.24 195.93 83.96 195.19 83.4C194.47 82.82 193.98 82.01 193.72 80.97C193.48 79.93 193.36 78.72 193.36 77.34V73.35C193.36 71.89 193.49 70.65 193.75 69.63C194.01 68.59 194.5 67.8 195.22 67.26C195.96 66.7 197.03 66.42 198.43 66.42C199.69 66.42 200.66 66.63 201.34 67.05C202.04 67.45 202.52 68.06 202.78 68.88C203.04 69.68 203.17 70.68 203.17 71.88V72.9H200.26V71.85C200.26 71.09 200.21 70.49 200.11 70.05C200.01 69.61 199.83 69.29 199.57 69.09C199.31 68.89 198.94 68.79 198.46 68.79C197.94 68.79 197.54 68.91 197.26 69.15C196.98 69.39 196.79 69.8 196.69 70.38C196.61 70.94 196.57 71.71 196.57 72.69V78.15C196.57 79.63 196.71 80.62 196.99 81.12C197.27 81.62 197.77 81.87 198.49 81.87C199.03 81.87 199.42 81.75 199.66 81.51C199.92 81.25 200.08 80.89 200.14 80.43C200.22 79.97 200.26 79.45 200.26 78.87V77.46H203.17V78.66C203.17 79.82 203.03 80.82 202.75 81.66C202.49 82.5 202.01 83.14 201.31 83.58C200.63 84.02 199.67 84.24 198.43 84.24ZM213.15 84V59.7H218.43C220.23 59.7 221.65 59.98 222.69 60.54C223.75 61.08 224.5 61.9 224.94 63C225.4 64.1 225.63 65.47 225.63 67.11V76.05C225.63 77.77 225.4 79.22 224.94 80.4C224.5 81.58 223.77 82.48 222.75 83.1C221.75 83.7 220.4 84 218.7 84H213.15ZM216.54 81.57H218.46C219.7 81.57 220.58 81.33 221.1 80.85C221.62 80.37 221.93 79.67 222.03 78.75C222.15 77.83 222.21 76.72 222.21 75.42V67.53C222.21 66.27 222.13 65.25 221.97 64.47C221.81 63.69 221.46 63.12 220.92 62.76C220.38 62.4 219.53 62.22 218.37 62.22H216.54V81.57ZM233.5 84.24C232.14 84.24 231.09 83.98 230.35 83.46C229.61 82.92 229.09 82.14 228.79 81.12C228.51 80.08 228.37 78.81 228.37 77.31V73.35C228.37 71.81 228.52 70.53 228.82 69.51C229.12 68.49 229.64 67.72 230.38 67.2C231.14 66.68 232.18 66.42 233.5 66.42C234.96 66.42 236.03 66.72 236.71 67.32C237.41 67.92 237.87 68.79 238.09 69.93C238.31 71.05 238.42 72.4 238.42 73.98V75.39H231.58V78.87C231.58 79.57 231.64 80.14 231.76 80.58C231.9 81.02 232.11 81.35 232.39 81.57C232.69 81.77 233.07 81.87 233.53 81.87C234.01 81.87 234.37 81.76 234.61 81.54C234.87 81.3 235.04 80.97 235.12 80.55C235.22 80.11 235.27 79.6 235.27 79.02V77.97H238.39V78.63C238.39 80.37 238.02 81.74 237.28 82.74C236.54 83.74 235.28 84.24 233.5 84.24ZM231.58 73.65H235.27V72.09C235.27 71.37 235.23 70.77 235.15 70.29C235.07 69.79 234.9 69.42 234.64 69.18C234.4 68.92 234.01 68.79 233.47 68.79C232.95 68.79 232.55 68.91 232.27 69.15C232.01 69.39 231.83 69.8 231.73 70.38C231.63 70.94 231.58 71.72 231.58 72.72V73.65ZM245.347 84.24C243.927 84.24 242.787 83.8 241.927 82.92C241.067 82.02 240.577 80.84 240.457 79.38L243.127 78.57C243.287 79.67 243.557 80.5 243.937 81.06C244.317 81.6 244.877 81.87 245.617 81.87C246.197 81.87 246.637 81.71 246.937 81.39C247.237 81.05 247.387 80.6 247.387 80.04C247.387 79.54 247.277 79.09 247.057 78.69C246.837 78.29 246.477 77.88 245.977 77.46L243.007 74.91C242.407 74.39 241.897 73.81 241.477 73.17C241.077 72.53 240.877 71.7 240.877 70.68C240.877 69.76 241.057 68.99 241.417 68.37C241.797 67.73 242.317 67.25 242.977 66.93C243.657 66.59 244.447 66.42 245.347 66.42C246.727 66.42 247.777 66.87 248.497 67.77C249.237 68.65 249.657 69.72 249.757 70.98L247.597 71.79C247.517 71.19 247.397 70.67 247.237 70.23C247.077 69.77 246.857 69.42 246.577 69.18C246.297 68.92 245.927 68.79 245.467 68.79C244.947 68.79 244.527 68.97 244.207 69.33C243.907 69.67 243.757 70.08 243.757 70.56C243.757 70.86 243.817 71.16 243.937 71.46C244.077 71.74 244.307 72.02 244.627 72.3L247.687 75.12C248.107 75.5 248.497 75.91 248.857 76.35C249.237 76.79 249.547 77.29 249.787 77.85C250.027 78.41 250.147 79.06 250.147 79.8C250.147 80.78 249.947 81.6 249.547 82.26C249.147 82.92 248.587 83.42 247.867 83.76C247.147 84.08 246.307 84.24 245.347 84.24ZM252.758 84V66.66H255.968V84H252.758ZM252.758 64.08V60.72H255.968V64.08H252.758ZM263.903 89.37C262.863 89.37 261.923 89.26 261.083 89.04C260.243 88.82 259.583 88.47 259.103 87.99C258.623 87.51 258.383 86.88 258.383 86.1C258.383 85.54 258.503 85.05 258.743 84.63C258.983 84.21 259.293 83.85 259.673 83.55C260.053 83.23 260.453 82.97 260.873 82.77C260.313 82.61 259.893 82.36 259.613 82.02C259.333 81.66 259.193 81.29 259.193 80.91C259.193 80.27 259.363 79.72 259.703 79.26C260.043 78.8 260.513 78.3 261.113 77.76C260.453 77.26 259.953 76.62 259.613 75.84C259.273 75.06 259.103 73.98 259.103 72.6C259.103 71.24 259.283 70.11 259.643 69.21C260.023 68.29 260.573 67.6 261.293 67.14C262.033 66.66 262.933 66.42 263.993 66.42C264.933 66.42 265.683 66.58 266.243 66.9C266.823 67.22 267.263 67.7 267.563 68.34C267.663 68.18 267.933 67.91 268.373 67.53C268.813 67.13 269.323 66.8 269.903 66.54L270.383 66.33L271.193 68.4C270.933 68.44 270.583 68.54 270.143 68.7C269.723 68.84 269.323 68.99 268.943 69.15C268.583 69.29 268.353 69.41 268.253 69.51C268.393 69.85 268.513 70.34 268.613 70.98C268.733 71.62 268.793 72.19 268.793 72.69C268.793 73.87 268.643 74.91 268.343 75.81C268.043 76.71 267.543 77.42 266.843 77.94C266.163 78.44 265.213 78.69 263.993 78.69C263.733 78.69 263.453 78.67 263.153 78.63C262.853 78.59 262.583 78.54 262.343 78.48C262.223 78.66 262.093 78.87 261.953 79.11C261.833 79.35 261.773 79.58 261.773 79.8C261.773 80.02 261.883 80.2 262.103 80.34C262.343 80.46 262.713 80.54 263.213 80.58L265.913 80.82C267.273 80.94 268.283 81.35 268.943 82.05C269.603 82.75 269.933 83.75 269.933 85.05C269.933 85.99 269.713 86.78 269.273 87.42C268.833 88.08 268.163 88.57 267.263 88.89C266.383 89.21 265.263 89.37 263.903 89.37ZM264.143 86.85C265.283 86.85 266.123 86.71 266.663 86.43C267.203 86.17 267.473 85.74 267.473 85.14C267.473 84.78 267.403 84.48 267.263 84.24C267.143 84 266.913 83.81 266.573 83.67C266.233 83.53 265.743 83.43 265.103 83.37L262.373 83.13C262.153 83.35 261.943 83.57 261.743 83.79C261.543 84.01 261.383 84.24 261.263 84.48C261.143 84.74 261.083 85.01 261.083 85.29C261.083 85.81 261.303 86.2 261.743 86.46C262.183 86.72 262.983 86.85 264.143 86.85ZM263.993 76.44C264.453 76.44 264.813 76.36 265.073 76.2C265.353 76.02 265.563 75.77 265.703 75.45C265.843 75.11 265.933 74.7 265.973 74.22C266.033 73.74 266.063 73.2 266.063 72.6C266.063 72 266.033 71.46 265.973 70.98C265.933 70.48 265.843 70.06 265.703 69.72C265.583 69.36 265.383 69.09 265.103 68.91C264.843 68.73 264.483 68.64 264.023 68.64C263.583 68.64 263.213 68.73 262.913 68.91C262.633 69.09 262.423 69.35 262.283 69.69C262.143 70.01 262.043 70.42 261.983 70.92C261.923 71.4 261.893 71.96 261.893 72.6C261.893 73.14 261.913 73.65 261.953 74.13C262.013 74.59 262.113 74.99 262.253 75.33C262.413 75.67 262.633 75.94 262.913 76.14C263.193 76.34 263.553 76.44 263.993 76.44ZM272.44 84V66.66H275.65V68.37C276.23 67.83 276.87 67.37 277.57 66.99C278.27 66.61 279.04 66.42 279.88 66.42C280.58 66.42 281.11 66.6 281.47 66.96C281.85 67.32 282.11 67.77 282.25 68.31C282.41 68.85 282.49 69.4 282.49 69.96V84H279.28V70.89C279.28 70.27 279.19 69.79 279.01 69.45C278.83 69.11 278.46 68.94 277.9 68.94C277.54 68.94 277.16 69.05 276.76 69.27C276.38 69.47 276.01 69.72 275.65 70.02V84H272.44ZM290.424 84.24C289.064 84.24 288.014 83.98 287.274 83.46C286.534 82.92 286.014 82.14 285.714 81.12C285.434 80.08 285.294 78.81 285.294 77.31V73.35C285.294 71.81 285.444 70.53 285.744 69.51C286.044 68.49 286.564 67.72 287.304 67.2C288.064 66.68 289.104 66.42 290.424 66.42C291.884 66.42 292.954 66.72 293.634 67.32C294.334 67.92 294.794 68.79 295.014 69.93C295.234 71.05 295.344 72.4 295.344 73.98V75.39H288.504V78.87C288.504 79.57 288.564 80.14 288.684 80.58C288.824 81.02 289.034 81.35 289.314 81.57C289.614 81.77 289.994 81.87 290.454 81.87C290.934 81.87 291.294 81.76 291.534 81.54C291.794 81.3 291.964 80.97 292.044 80.55C292.144 80.11 292.194 79.6 292.194 79.02V77.97H295.314V78.63C295.314 80.37 294.944 81.74 294.204 82.74C293.464 83.74 292.204 84.24 290.424 84.24ZM288.504 73.65H292.194V72.09C292.194 71.37 292.154 70.77 292.074 70.29C291.994 69.79 291.824 69.42 291.564 69.18C291.324 68.92 290.934 68.79 290.394 68.79C289.874 68.79 289.474 68.91 289.194 69.15C288.934 69.39 288.754 69.8 288.654 70.38C288.554 70.94 288.504 71.72 288.504 72.72V73.65ZM298.341 84V66.66H301.551V69.12C302.191 68.06 302.831 67.35 303.471 66.99C304.111 66.63 304.751 66.45 305.391 66.45C305.471 66.45 305.541 66.45 305.601 66.45C305.681 66.45 305.781 66.46 305.901 66.48V70.02C305.661 69.92 305.381 69.84 305.061 69.78C304.761 69.7 304.451 69.66 304.131 69.66C303.631 69.66 303.171 69.78 302.751 70.02C302.351 70.24 301.951 70.68 301.551 71.34V84H298.341Z" fill="#FFFCF2"/>
<path d="M126.08 54V24.96H120.6V21.6H135.92V24.96H130.6V54H126.08ZM144.575 54.32C142.868 54.32 141.521 53.9733 140.535 53.28C139.548 52.5867 138.841 51.6 138.415 50.32C138.015 49.04 137.815 47.5333 137.815 45.8V39.08C137.815 37.3467 138.015 35.84 138.415 34.56C138.841 33.28 139.548 32.2933 140.535 31.6C141.521 30.9067 142.868 30.56 144.575 30.56C146.281 30.56 147.615 30.9067 148.575 31.6C149.561 32.2933 150.255 33.28 150.655 34.56C151.081 35.84 151.295 37.3467 151.295 39.08V45.8C151.295 47.5333 151.081 49.04 150.655 50.32C150.255 51.6 149.561 52.5867 148.575 53.28C147.615 53.9733 146.281 54.32 144.575 54.32ZM144.575 51.16C145.401 51.16 145.975 50.92 146.295 50.44C146.641 49.96 146.841 49.3333 146.895 48.56C146.975 47.76 147.015 46.9333 147.015 46.08V38.84C147.015 37.96 146.975 37.1333 146.895 36.36C146.841 35.5867 146.641 34.96 146.295 34.48C145.975 33.9733 145.401 33.72 144.575 33.72C143.748 33.72 143.161 33.9733 142.815 34.48C142.468 34.96 142.255 35.5867 142.175 36.36C142.121 37.1333 142.095 37.96 142.095 38.84V46.08C142.095 46.9333 142.121 47.76 142.175 48.56C142.255 49.3333 142.468 49.96 142.815 50.44C143.161 50.92 143.748 51.16 144.575 51.16ZM155.207 54V30.88H159.167V33.08C159.94 32.2 160.794 31.5467 161.727 31.12C162.66 30.6933 163.62 30.48 164.607 30.48C165.46 30.48 166.22 30.6933 166.887 31.12C167.58 31.5467 168.074 32.3067 168.367 33.4C169.194 32.3867 170.087 31.6533 171.047 31.2C172.034 30.72 173.06 30.48 174.127 30.48C174.874 30.48 175.554 30.6667 176.167 31.04C176.78 31.3867 177.274 31.96 177.647 32.76C178.02 33.5333 178.207 34.56 178.207 35.84V54H174.287V36.12C174.287 35 174.1 34.2533 173.727 33.88C173.38 33.48 172.9 33.28 172.287 33.28C171.7 33.28 171.087 33.4533 170.447 33.8C169.807 34.12 169.22 34.5733 168.687 35.16C168.687 35.2667 168.687 35.3733 168.687 35.48C168.687 35.5867 168.687 35.7067 168.687 35.84V54H164.767V36.12C164.767 35 164.58 34.2533 164.207 33.88C163.86 33.48 163.38 33.28 162.767 33.28C162.18 33.28 161.567 33.4533 160.927 33.8C160.314 34.12 159.727 34.5733 159.167 35.16V54H155.207ZM191.895 54V21.6H196.415V35.6H204.735V21.6H209.255V54H204.735V38.84H196.415V54H191.895ZM220.317 54.32C218.61 54.32 217.264 53.9733 216.277 53.28C215.29 52.5867 214.584 51.6 214.157 50.32C213.757 49.04 213.557 47.5333 213.557 45.8V39.08C213.557 37.3467 213.757 35.84 214.157 34.56C214.584 33.28 215.29 32.2933 216.277 31.6C217.264 30.9067 218.61 30.56 220.317 30.56C222.024 30.56 223.357 30.9067 224.317 31.6C225.304 32.2933 225.997 33.28 226.397 34.56C226.824 35.84 227.037 37.3467 227.037 39.08V45.8C227.037 47.5333 226.824 49.04 226.397 50.32C225.997 51.6 225.304 52.5867 224.317 53.28C223.357 53.9733 222.024 54.32 220.317 54.32ZM220.317 51.16C221.144 51.16 221.717 50.92 222.037 50.44C222.384 49.96 222.584 49.3333 222.637 48.56C222.717 47.76 222.757 46.9333 222.757 46.08V38.84C222.757 37.96 222.717 37.1333 222.637 36.36C222.584 35.5867 222.384 34.96 222.037 34.48C221.717 33.9733 221.144 33.72 220.317 33.72C219.49 33.72 218.904 33.9733 218.557 34.48C218.21 34.96 217.997 35.5867 217.917 36.36C217.864 37.1333 217.837 37.96 217.837 38.84V46.08C217.837 46.9333 217.864 47.76 217.917 48.56C217.997 49.3333 218.21 49.96 218.557 50.44C218.904 50.92 219.49 51.16 220.317 51.16ZM231.349 54V21.6H235.629V54H231.349ZM244.25 54.32C243.343 54.32 242.543 54.0667 241.85 53.56C241.156 53.0267 240.61 52.36 240.21 51.56C239.81 50.7333 239.61 49.8667 239.61 48.96C239.61 47.52 239.85 46.3067 240.33 45.32C240.81 44.3333 241.463 43.5067 242.29 42.84C243.143 42.1467 244.116 41.5467 245.21 41.04C246.33 40.5333 247.503 40.04 248.73 39.56V37.92C248.73 36.9867 248.676 36.2133 248.57 35.6C248.463 34.9867 248.236 34.5333 247.89 34.24C247.57 33.92 247.076 33.76 246.41 33.76C245.823 33.76 245.343 33.8933 244.97 34.16C244.623 34.4267 244.37 34.8133 244.21 35.32C244.05 35.8 243.97 36.3733 243.97 37.04V38.2L239.73 38.04C239.783 35.48 240.37 33.6 241.49 32.4C242.61 31.1733 244.343 30.56 246.69 30.56C248.983 30.56 250.61 31.1867 251.57 32.44C252.53 33.6933 253.01 35.5067 253.01 37.88V48.44C253.01 49.16 253.023 49.8533 253.05 50.52C253.103 51.1867 253.156 51.8133 253.21 52.4C253.29 52.96 253.356 53.4933 253.41 54H249.49C249.41 53.5733 249.303 53.04 249.17 52.4C249.063 51.7333 248.983 51.1333 248.93 50.6C248.663 51.5067 248.143 52.36 247.37 53.16C246.623 53.9333 245.583 54.32 244.25 54.32ZM245.93 50.64C246.356 50.64 246.756 50.52 247.13 50.28C247.503 50.04 247.836 49.7733 248.13 49.48C248.423 49.16 248.623 48.9067 248.73 48.72V42.16C248.063 42.5333 247.436 42.9067 246.85 43.28C246.263 43.6533 245.743 44.0533 245.29 44.48C244.863 44.88 244.516 45.3467 244.25 45.88C244.01 46.3867 243.89 46.9733 243.89 47.64C243.89 48.5733 244.063 49.3067 244.41 49.84C244.756 50.3733 245.263 50.64 245.93 50.64ZM257.121 54V30.88H261.401V33.16C262.174 32.44 263.028 31.8267 263.961 31.32C264.894 30.8133 265.921 30.56 267.041 30.56C267.974 30.56 268.681 30.8 269.161 31.28C269.668 31.76 270.014 32.36 270.201 33.08C270.414 33.8 270.521 34.5333 270.521 35.28V54H266.241V36.52C266.241 35.6933 266.121 35.0533 265.881 34.6C265.641 34.1467 265.148 33.92 264.401 33.92C263.921 33.92 263.414 34.0667 262.881 34.36C262.374 34.6267 261.881 34.96 261.401 35.36V54H257.121ZM280.059 54.32C278.112 54.32 276.659 53.6133 275.699 52.2C274.739 50.76 274.259 48.3333 274.259 44.92V40.44C274.259 38.68 274.406 37.0533 274.699 35.56C274.992 34.04 275.539 32.8267 276.339 31.92C277.166 31.0133 278.366 30.56 279.939 30.56C280.712 30.56 281.419 30.7333 282.059 31.08C282.699 31.4267 283.272 31.8533 283.779 32.36V21.6H288.059V54H283.779V52.52C283.272 53.0533 282.712 53.4933 282.099 53.84C281.512 54.16 280.832 54.32 280.059 54.32ZM281.139 50.96C281.539 50.96 281.966 50.8933 282.419 50.76C282.872 50.6 283.326 50.3733 283.779 50.08V34.92C283.406 34.6533 282.992 34.4267 282.539 34.24C282.086 34.0267 281.592 33.92 281.059 33.92C280.072 33.92 279.406 34.4 279.059 35.36C278.712 36.2933 278.539 37.4267 278.539 38.76V45.28C278.539 46.3467 278.592 47.32 278.699 48.2C278.832 49.0533 279.086 49.7333 279.459 50.24C279.832 50.72 280.392 50.96 281.139 50.96Z" fill="#FFFCF2"/>
</svg>
