<svg width="200" height="54" viewBox="0 0 200 54" fill="none" xmlns="http://www.w3.org/2000/svg">
<rect x="2.5" y="6.34766" width="45" height="45" stroke="#EB5E28" stroke-width="5"/>
<rect x="2.5" y="6.34766" width="15" height="15" stroke="#EB5E28" stroke-width="5"/>
<rect x="2.5" y="6.34766" width="30" height="30" stroke="#EB5E28" stroke-width="5"/>
<path d="M60.0653 47.2781C59.052 47.2781 58.2386 47.0648 57.6253 46.6381C57.0253 46.1981 56.5853 45.5648 56.3053 44.7381C56.0386 43.9115 55.9053 42.9181 55.9053 41.7581V36.3381C55.9053 35.1515 56.0253 34.1448 56.2653 33.3181C56.5186 32.4781 56.9586 31.8381 57.5853 31.3981C58.2253 30.9581 59.112 30.7381 60.2453 30.7381C61.2586 30.7381 62.072 30.9115 62.6853 31.2581C63.312 31.5915 63.7653 32.1115 64.0453 32.8181C64.3253 33.5115 64.4653 34.3915 64.4653 35.4581V36.0581H62.3453V35.5581C62.3453 34.8515 62.2986 34.2781 62.2053 33.8381C62.112 33.3848 61.9186 33.0515 61.6253 32.8381C61.3453 32.6115 60.8986 32.4981 60.2853 32.4981C59.6186 32.4981 59.132 32.6515 58.8253 32.9581C58.532 33.2648 58.3453 33.6848 58.2653 34.2181C58.1986 34.7381 58.1653 35.3315 58.1653 35.9981V41.9981C58.1653 42.7715 58.2186 43.4181 58.3253 43.9381C58.4453 44.4581 58.6653 44.8448 58.9853 45.0981C59.3053 45.3515 59.7586 45.4781 60.3453 45.4781C60.932 45.4781 61.3853 45.3381 61.7053 45.0581C62.0253 44.7781 62.2453 44.3648 62.3653 43.8181C62.4853 43.2715 62.5453 42.5915 62.5453 41.7781V40.6581H60.4853V39.0581H64.5853V47.0781H63.1653L62.9453 45.2181C62.732 45.8181 62.3986 46.3115 61.9453 46.6981C61.492 47.0848 60.8653 47.2781 60.0653 47.2781ZM66.7884 47.0781V35.5181H68.9284V37.1581C69.3551 36.4515 69.7818 35.9781 70.2084 35.7381C70.6351 35.4981 71.0618 35.3781 71.4884 35.3781C71.5418 35.3781 71.5884 35.3781 71.6284 35.3781C71.6818 35.3781 71.7484 35.3848 71.8284 35.3981V37.7581C71.6684 37.6915 71.4818 37.6381 71.2684 37.5981C71.0684 37.5448 70.8618 37.5181 70.6484 37.5181C70.3151 37.5181 70.0084 37.5981 69.7284 37.7581C69.4618 37.9048 69.1951 38.1981 68.9284 38.6381V47.0781H66.7884ZM75.2342 47.2381C74.7809 47.2381 74.3809 47.1115 74.0342 46.8581C73.6876 46.5915 73.4142 46.2581 73.2142 45.8581C73.0142 45.4448 72.9142 45.0115 72.9142 44.5581C72.9142 43.8381 73.0342 43.2315 73.2742 42.7381C73.5142 42.2448 73.8409 41.8315 74.2542 41.4981C74.6809 41.1515 75.1676 40.8515 75.7142 40.5981C76.2742 40.3448 76.8609 40.0981 77.4742 39.8581V39.0381C77.4742 38.5715 77.4476 38.1848 77.3942 37.8781C77.3409 37.5715 77.2276 37.3448 77.0542 37.1981C76.8942 37.0381 76.6476 36.9581 76.3142 36.9581C76.0209 36.9581 75.7809 37.0248 75.5942 37.1581C75.4209 37.2915 75.2942 37.4848 75.2142 37.7381C75.1342 37.9781 75.0942 38.2648 75.0942 38.5981V39.1781L72.9742 39.0981C73.0009 37.8181 73.2942 36.8781 73.8542 36.2781C74.4142 35.6648 75.2809 35.3581 76.4542 35.3581C77.6009 35.3581 78.4142 35.6715 78.8942 36.2981C79.3742 36.9248 79.6142 37.8315 79.6142 39.0181V44.2981C79.6142 44.6581 79.6209 45.0048 79.6342 45.3381C79.6609 45.6715 79.6876 45.9848 79.7142 46.2781C79.7542 46.5581 79.7876 46.8248 79.8142 47.0781H77.8542C77.8142 46.8648 77.7609 46.5981 77.6942 46.2781C77.6409 45.9448 77.6009 45.6448 77.5742 45.3781C77.4409 45.8315 77.1809 46.2581 76.7942 46.6581C76.4209 47.0448 75.9009 47.2381 75.2342 47.2381ZM76.0742 45.3981C76.2876 45.3981 76.4876 45.3381 76.6742 45.2181C76.8609 45.0981 77.0276 44.9648 77.1742 44.8181C77.3209 44.6581 77.4209 44.5315 77.4742 44.4381V41.1581C77.1409 41.3448 76.8276 41.5315 76.5342 41.7181C76.2409 41.9048 75.9809 42.1048 75.7542 42.3181C75.5409 42.5181 75.3676 42.7515 75.2342 43.0181C75.1142 43.2715 75.0542 43.5648 75.0542 43.8981C75.0542 44.3648 75.1409 44.7315 75.3142 44.9981C75.4876 45.2648 75.7409 45.3981 76.0742 45.3981ZM81.6698 50.8781V35.5181H83.8098V36.4381C84.0632 36.1448 84.3698 35.8915 84.7298 35.6781C85.0898 35.4648 85.5165 35.3581 86.0098 35.3581C86.6098 35.3581 87.0832 35.5181 87.4298 35.8381C87.7898 36.1448 88.0565 36.5381 88.2298 37.0181C88.4032 37.4848 88.5165 37.9648 88.5698 38.4581C88.6232 38.9381 88.6498 39.3515 88.6498 39.6981V42.4981C88.6498 43.3115 88.5698 44.0848 88.4098 44.8181C88.2498 45.5381 87.9565 46.1248 87.5298 46.5781C87.1165 47.0181 86.5298 47.2381 85.7698 47.2381C85.3565 47.2381 84.9898 47.1381 84.6698 46.9381C84.3498 46.7248 84.0632 46.4848 83.8098 46.2181V50.8781H81.6698ZM85.3498 45.5581C85.7232 45.5581 85.9898 45.4248 86.1498 45.1581C86.3098 44.8781 86.4098 44.5048 86.4498 44.0381C86.4898 43.5715 86.5098 43.0581 86.5098 42.4981V39.6981C86.5098 39.2181 86.4832 38.7781 86.4298 38.3781C86.3765 37.9648 86.2632 37.6381 86.0898 37.3981C85.9165 37.1581 85.6432 37.0381 85.2698 37.0381C84.9898 37.0381 84.7232 37.0981 84.4698 37.2181C84.2165 37.3381 83.9965 37.4781 83.8098 37.6381V45.0381C84.0098 45.1848 84.2365 45.3115 84.4898 45.4181C84.7432 45.5115 85.0298 45.5581 85.3498 45.5581ZM90.6556 47.0781V30.8781H92.7956V36.7181C93.1823 36.3448 93.6156 36.0248 94.0956 35.7581C94.5756 35.4915 95.109 35.3581 95.6956 35.3581C96.149 35.3581 96.4956 35.4781 96.7356 35.7181C96.989 35.9581 97.1623 36.2581 97.2556 36.6181C97.3623 36.9781 97.4156 37.3448 97.4156 37.7181V47.0781H95.2756V38.3381C95.2756 37.9248 95.2156 37.6048 95.0956 37.3781C94.9756 37.1515 94.729 37.0381 94.3556 37.0381C94.1023 37.0381 93.8356 37.1115 93.5556 37.2581C93.289 37.4048 93.0356 37.5848 92.7956 37.7981V47.0781H90.6556ZM99.6419 47.0781V35.5181H101.782V47.0781H99.6419ZM99.6419 33.7981V31.5581H101.782V33.7981H99.6419ZM107.232 47.2381C106.286 47.2381 105.566 47.0515 105.072 46.6781C104.592 46.2915 104.266 45.7515 104.092 45.0581C103.932 44.3648 103.852 43.5581 103.852 42.6381V39.9781C103.852 39.0048 103.939 38.1781 104.112 37.4981C104.286 36.8048 104.612 36.2781 105.092 35.9181C105.586 35.5448 106.299 35.3581 107.232 35.3581C108.072 35.3581 108.719 35.4981 109.172 35.7781C109.639 36.0448 109.959 36.4515 110.132 36.9981C110.306 37.5315 110.392 38.1981 110.392 38.9981V39.6781H108.452V38.9781C108.452 38.4715 108.419 38.0715 108.352 37.7781C108.286 37.4848 108.166 37.2715 107.992 37.1381C107.819 37.0048 107.572 36.9381 107.252 36.9381C106.906 36.9381 106.639 37.0181 106.452 37.1781C106.266 37.3381 106.139 37.6115 106.072 37.9981C106.019 38.3715 105.992 38.8848 105.992 39.5381V43.1781C105.992 44.1648 106.086 44.8248 106.272 45.1581C106.459 45.4915 106.792 45.6581 107.272 45.6581C107.632 45.6581 107.892 45.5781 108.052 45.4181C108.226 45.2448 108.332 45.0048 108.372 44.6981C108.426 44.3915 108.452 44.0448 108.452 43.6581V42.7181H110.392V43.5181C110.392 44.2915 110.299 44.9581 110.112 45.5181C109.939 46.0781 109.619 46.5048 109.152 46.7981C108.699 47.0915 108.059 47.2381 107.232 47.2381ZM117.045 47.0781V30.8781H120.565C121.765 30.8781 122.712 31.0648 123.405 31.4381C124.112 31.7981 124.612 32.3448 124.905 33.0781C125.212 33.8115 125.365 34.7248 125.365 35.8181V41.7781C125.365 42.9248 125.212 43.8915 124.905 44.6781C124.612 45.4648 124.125 46.0648 123.445 46.4781C122.778 46.8781 121.878 47.0781 120.745 47.0781H117.045ZM119.305 45.4581H120.585C121.412 45.4581 121.998 45.2981 122.345 44.9781C122.692 44.6581 122.898 44.1915 122.965 43.5781C123.045 42.9648 123.085 42.2248 123.085 41.3581V36.0981C123.085 35.2581 123.032 34.5781 122.925 34.0581C122.818 33.5381 122.585 33.1581 122.225 32.9181C121.865 32.6781 121.298 32.5581 120.525 32.5581H119.305V45.4581ZM130.612 47.2381C129.705 47.2381 129.005 47.0648 128.512 46.7181C128.019 46.3581 127.672 45.8381 127.472 45.1581C127.285 44.4648 127.192 43.6181 127.192 42.6181V39.9781C127.192 38.9515 127.292 38.0981 127.492 37.4181C127.692 36.7381 128.039 36.2248 128.532 35.8781C129.039 35.5315 129.732 35.3581 130.612 35.3581C131.585 35.3581 132.299 35.5581 132.752 35.9581C133.219 36.3581 133.525 36.9381 133.672 37.6981C133.819 38.4448 133.892 39.3448 133.892 40.3981V41.3381H129.332V43.6581C129.332 44.1248 129.372 44.5048 129.452 44.7981C129.545 45.0915 129.685 45.3115 129.872 45.4581C130.072 45.5915 130.325 45.6581 130.632 45.6581C130.952 45.6581 131.192 45.5848 131.352 45.4381C131.525 45.2781 131.639 45.0581 131.692 44.7781C131.759 44.4848 131.792 44.1448 131.792 43.7581V43.0581H133.872V43.4981C133.872 44.6581 133.625 45.5715 133.132 46.2381C132.639 46.9048 131.799 47.2381 130.612 47.2381ZM129.332 40.1781H131.792V39.1381C131.792 38.6581 131.765 38.2581 131.712 37.9381C131.659 37.6048 131.545 37.3581 131.372 37.1981C131.212 37.0248 130.952 36.9381 130.592 36.9381C130.245 36.9381 129.979 37.0181 129.792 37.1781C129.619 37.3381 129.499 37.6115 129.432 37.9981C129.365 38.3715 129.332 38.8915 129.332 39.5581V40.1781ZM138.51 47.2381C137.563 47.2381 136.803 46.9448 136.23 46.3581C135.657 45.7581 135.33 44.9715 135.25 43.9981L137.03 43.4581C137.137 44.1915 137.317 44.7448 137.57 45.1181C137.823 45.4781 138.197 45.6581 138.69 45.6581C139.077 45.6581 139.37 45.5515 139.57 45.3381C139.77 45.1115 139.87 44.8115 139.87 44.4381C139.87 44.1048 139.797 43.8048 139.65 43.5381C139.503 43.2715 139.263 42.9981 138.93 42.7181L136.95 41.0181C136.55 40.6715 136.21 40.2848 135.93 39.8581C135.663 39.4315 135.53 38.8781 135.53 38.1981C135.53 37.5848 135.65 37.0715 135.89 36.6581C136.143 36.2315 136.49 35.9115 136.93 35.6981C137.383 35.4715 137.91 35.3581 138.51 35.3581C139.43 35.3581 140.13 35.6581 140.61 36.2581C141.103 36.8448 141.383 37.5581 141.45 38.3981L140.01 38.9381C139.957 38.5381 139.877 38.1915 139.77 37.8981C139.663 37.5915 139.517 37.3581 139.33 37.1981C139.143 37.0248 138.897 36.9381 138.59 36.9381C138.243 36.9381 137.963 37.0581 137.75 37.2981C137.55 37.5248 137.45 37.7981 137.45 38.1181C137.45 38.3181 137.49 38.5181 137.57 38.7181C137.663 38.9048 137.817 39.0915 138.03 39.2781L140.07 41.1581C140.35 41.4115 140.61 41.6848 140.85 41.9781C141.103 42.2715 141.31 42.6048 141.47 42.9781C141.63 43.3515 141.71 43.7848 141.71 44.2781C141.71 44.9315 141.577 45.4781 141.31 45.9181C141.043 46.3581 140.67 46.6915 140.19 46.9181C139.71 47.1315 139.15 47.2381 138.51 47.2381ZM143.45 47.0781V35.5181H145.59V47.0781H143.45ZM143.45 33.7981V31.5581H145.59V33.7981H143.45ZM150.881 50.6581C150.187 50.6581 149.561 50.5848 149.001 50.4381C148.441 50.2915 148.001 50.0581 147.681 49.7381C147.361 49.4181 147.201 48.9981 147.201 48.4781C147.201 48.1048 147.281 47.7781 147.441 47.4981C147.601 47.2181 147.807 46.9781 148.061 46.7781C148.314 46.5648 148.581 46.3915 148.861 46.2581C148.487 46.1515 148.207 45.9848 148.021 45.7581C147.834 45.5181 147.741 45.2715 147.741 45.0181C147.741 44.5915 147.854 44.2248 148.081 43.9181C148.307 43.6115 148.621 43.2781 149.021 42.9181C148.581 42.5848 148.247 42.1581 148.021 41.6381C147.794 41.1181 147.681 40.3981 147.681 39.4781C147.681 38.5715 147.801 37.8181 148.041 37.2181C148.294 36.6048 148.661 36.1448 149.141 35.8381C149.634 35.5181 150.234 35.3581 150.941 35.3581C151.567 35.3581 152.067 35.4648 152.441 35.6781C152.827 35.8915 153.121 36.2115 153.321 36.6381C153.387 36.5315 153.567 36.3515 153.861 36.0981C154.154 35.8315 154.494 35.6115 154.881 35.4381L155.201 35.2981L155.741 36.6781C155.567 36.7048 155.334 36.7715 155.041 36.8781C154.761 36.9715 154.494 37.0715 154.241 37.1781C154.001 37.2715 153.847 37.3515 153.781 37.4181C153.874 37.6448 153.954 37.9715 154.021 38.3981C154.101 38.8248 154.141 39.2048 154.141 39.5381C154.141 40.3248 154.041 41.0181 153.841 41.6181C153.641 42.2181 153.307 42.6915 152.841 43.0381C152.387 43.3715 151.754 43.5381 150.941 43.5381C150.767 43.5381 150.581 43.5248 150.381 43.4981C150.181 43.4715 150.001 43.4381 149.841 43.3981C149.761 43.5181 149.674 43.6581 149.581 43.8181C149.501 43.9781 149.461 44.1315 149.461 44.2781C149.461 44.4248 149.534 44.5448 149.681 44.6381C149.841 44.7181 150.087 44.7715 150.421 44.7981L152.221 44.9581C153.127 45.0381 153.801 45.3115 154.241 45.7781C154.681 46.2448 154.901 46.9115 154.901 47.7781C154.901 48.4048 154.754 48.9315 154.461 49.3581C154.167 49.7981 153.721 50.1248 153.121 50.3381C152.534 50.5515 151.787 50.6581 150.881 50.6581ZM151.041 48.9781C151.801 48.9781 152.361 48.8848 152.721 48.6981C153.081 48.5248 153.261 48.2381 153.261 47.8381C153.261 47.5981 153.214 47.3981 153.121 47.2381C153.041 47.0781 152.887 46.9515 152.661 46.8581C152.434 46.7648 152.107 46.6981 151.681 46.6581L149.861 46.4981C149.714 46.6448 149.574 46.7915 149.441 46.9381C149.307 47.0848 149.201 47.2381 149.121 47.3981C149.041 47.5715 149.001 47.7515 149.001 47.9381C149.001 48.2848 149.147 48.5448 149.441 48.7181C149.734 48.8915 150.267 48.9781 151.041 48.9781ZM150.941 42.0381C151.247 42.0381 151.487 41.9848 151.661 41.8781C151.847 41.7581 151.987 41.5915 152.081 41.3781C152.174 41.1515 152.234 40.8781 152.261 40.5581C152.301 40.2381 152.321 39.8781 152.321 39.4781C152.321 39.0781 152.301 38.7181 152.261 38.3981C152.234 38.0648 152.174 37.7848 152.081 37.5581C152.001 37.3181 151.867 37.1381 151.681 37.0181C151.507 36.8981 151.267 36.8381 150.961 36.8381C150.667 36.8381 150.421 36.8981 150.221 37.0181C150.034 37.1381 149.894 37.3115 149.801 37.5381C149.707 37.7515 149.641 38.0248 149.601 38.3581C149.561 38.6781 149.541 39.0515 149.541 39.4781C149.541 39.8381 149.554 40.1781 149.581 40.4981C149.621 40.8048 149.687 41.0715 149.781 41.2981C149.887 41.5248 150.034 41.7048 150.221 41.8381C150.407 41.9715 150.647 42.0381 150.941 42.0381ZM156.572 47.0781V35.5181H158.712V36.6581C159.099 36.2981 159.526 35.9915 159.992 35.7381C160.459 35.4848 160.972 35.3581 161.532 35.3581C161.999 35.3581 162.352 35.4781 162.592 35.7181C162.846 35.9581 163.019 36.2581 163.112 36.6181C163.219 36.9781 163.272 37.3448 163.272 37.7181V47.0781H161.132V38.3381C161.132 37.9248 161.072 37.6048 160.952 37.3781C160.832 37.1515 160.586 37.0381 160.212 37.0381C159.972 37.0381 159.719 37.1115 159.452 37.2581C159.199 37.3915 158.952 37.5581 158.712 37.7581V47.0781H156.572ZM168.561 47.2381C167.655 47.2381 166.955 47.0648 166.461 46.7181C165.968 46.3581 165.621 45.8381 165.421 45.1581C165.235 44.4648 165.141 43.6181 165.141 42.6181V39.9781C165.141 38.9515 165.241 38.0981 165.441 37.4181C165.641 36.7381 165.988 36.2248 166.481 35.8781C166.988 35.5315 167.681 35.3581 168.561 35.3581C169.535 35.3581 170.248 35.5581 170.701 35.9581C171.168 36.3581 171.475 36.9381 171.621 37.6981C171.768 38.4448 171.841 39.3448 171.841 40.3981V41.3381H167.281V43.6581C167.281 44.1248 167.321 44.5048 167.401 44.7981C167.495 45.0915 167.635 45.3115 167.821 45.4581C168.021 45.5915 168.275 45.6581 168.581 45.6581C168.901 45.6581 169.141 45.5848 169.301 45.4381C169.475 45.2781 169.588 45.0581 169.641 44.7781C169.708 44.4848 169.741 44.1448 169.741 43.7581V43.0581H171.821V43.4981C171.821 44.6581 171.575 45.5715 171.081 46.2381C170.588 46.9048 169.748 47.2381 168.561 47.2381ZM167.281 40.1781H169.741V39.1381C169.741 38.6581 169.715 38.2581 169.661 37.9381C169.608 37.6048 169.495 37.3581 169.321 37.1981C169.161 37.0248 168.901 36.9381 168.541 36.9381C168.195 36.9381 167.928 37.0181 167.741 37.1781C167.568 37.3381 167.448 37.6115 167.381 37.9981C167.315 38.3715 167.281 38.8915 167.281 39.5581V40.1781ZM173.839 47.0781V35.5181H175.979V37.1581C176.406 36.4515 176.833 35.9781 177.259 35.7381C177.686 35.4981 178.113 35.3781 178.539 35.3781C178.593 35.3781 178.639 35.3781 178.679 35.3781C178.733 35.3781 178.799 35.3848 178.879 35.3981V37.7581C178.719 37.6915 178.533 37.6381 178.319 37.5981C178.119 37.5448 177.913 37.5181 177.699 37.5181C177.366 37.5181 177.059 37.5981 176.779 37.7581C176.513 37.9048 176.246 38.1981 175.979 38.6381V47.0781H173.839Z" fill="#FFFCF2"/>
<path d="M57.9853 24V9.48H55.2453V7.8H62.9053V9.48H60.2453V24H57.9853ZM67.2327 24.16C66.3793 24.16 65.706 23.9867 65.2127 23.64C64.7193 23.2933 64.366 22.8 64.1527 22.16C63.9527 21.52 63.8527 20.7667 63.8527 19.9V16.54C63.8527 15.6733 63.9527 14.92 64.1527 14.28C64.366 13.64 64.7193 13.1467 65.2127 12.8C65.706 12.4533 66.3793 12.28 67.2327 12.28C68.086 12.28 68.7527 12.4533 69.2327 12.8C69.726 13.1467 70.0727 13.64 70.2727 14.28C70.486 14.92 70.5927 15.6733 70.5927 16.54V19.9C70.5927 20.7667 70.486 21.52 70.2727 22.16C70.0727 22.8 69.726 23.2933 69.2327 23.64C68.7527 23.9867 68.086 24.16 67.2327 24.16ZM67.2327 22.58C67.646 22.58 67.9327 22.46 68.0927 22.22C68.266 21.98 68.366 21.6667 68.3927 21.28C68.4327 20.88 68.4527 20.4667 68.4527 20.04V16.42C68.4527 15.98 68.4327 15.5667 68.3927 15.18C68.366 14.7933 68.266 14.48 68.0927 14.24C67.9327 13.9867 67.646 13.86 67.2327 13.86C66.8193 13.86 66.526 13.9867 66.3527 14.24C66.1793 14.48 66.0727 14.7933 66.0327 15.18C66.006 15.5667 65.9927 15.98 65.9927 16.42V20.04C65.9927 20.4667 66.006 20.88 66.0327 21.28C66.0727 21.6667 66.1793 21.98 66.3527 22.22C66.526 22.46 66.8193 22.58 67.2327 22.58ZM72.5488 24V12.44H74.5288V13.54C74.9154 13.1 75.3421 12.7733 75.8088 12.56C76.2754 12.3467 76.7554 12.24 77.2488 12.24C77.6754 12.24 78.0554 12.3467 78.3888 12.56C78.7354 12.7733 78.9821 13.1533 79.1288 13.7C79.5421 13.1933 79.9888 12.8267 80.4688 12.6C80.9621 12.36 81.4754 12.24 82.0088 12.24C82.3821 12.24 82.7221 12.3333 83.0288 12.52C83.3354 12.6933 83.5821 12.98 83.7688 13.38C83.9554 13.7667 84.0488 14.28 84.0488 14.92V24H82.0888V15.06C82.0888 14.5 81.9954 14.1267 81.8088 13.94C81.6354 13.74 81.3954 13.64 81.0888 13.64C80.7954 13.64 80.4888 13.7267 80.1688 13.9C79.8488 14.06 79.5554 14.2867 79.2888 14.58C79.2888 14.6333 79.2888 14.6867 79.2888 14.74C79.2888 14.7933 79.2888 14.8533 79.2888 14.92V24H77.3288V15.06C77.3288 14.5 77.2354 14.1267 77.0488 13.94C76.8754 13.74 76.6354 13.64 76.3288 13.64C76.0354 13.64 75.7288 13.7267 75.4088 13.9C75.1021 14.06 74.8088 14.2867 74.5288 14.58V24H72.5488ZM90.8928 24V7.8H93.1528V14.8H97.3128V7.8H99.5728V24H97.3128V16.42H93.1528V24H90.8928ZM105.104 24.16C104.25 24.16 103.577 23.9867 103.084 23.64C102.59 23.2933 102.237 22.8 102.024 22.16C101.824 21.52 101.724 20.7667 101.724 19.9V16.54C101.724 15.6733 101.824 14.92 102.024 14.28C102.237 13.64 102.59 13.1467 103.084 12.8C103.577 12.4533 104.25 12.28 105.104 12.28C105.957 12.28 106.624 12.4533 107.104 12.8C107.597 13.1467 107.944 13.64 108.144 14.28C108.357 14.92 108.464 15.6733 108.464 16.54V19.9C108.464 20.7667 108.357 21.52 108.144 22.16C107.944 22.8 107.597 23.2933 107.104 23.64C106.624 23.9867 105.957 24.16 105.104 24.16ZM105.104 22.58C105.517 22.58 105.804 22.46 105.964 22.22C106.137 21.98 106.237 21.6667 106.264 21.28C106.304 20.88 106.324 20.4667 106.324 20.04V16.42C106.324 15.98 106.304 15.5667 106.264 15.18C106.237 14.7933 106.137 14.48 105.964 14.24C105.804 13.9867 105.517 13.86 105.104 13.86C104.69 13.86 104.397 13.9867 104.224 14.24C104.05 14.48 103.944 14.7933 103.904 15.18C103.877 15.5667 103.864 15.98 103.864 16.42V20.04C103.864 20.4667 103.877 20.88 103.904 21.28C103.944 21.6667 104.05 21.98 104.224 22.22C104.397 22.46 104.69 22.58 105.104 22.58ZM110.62 24V7.8H112.76V24H110.62ZM117.07 24.16C116.617 24.16 116.217 24.0333 115.87 23.78C115.523 23.5133 115.25 23.18 115.05 22.78C114.85 22.3667 114.75 21.9333 114.75 21.48C114.75 20.76 114.87 20.1533 115.11 19.66C115.35 19.1667 115.677 18.7533 116.09 18.42C116.517 18.0733 117.003 17.7733 117.55 17.52C118.11 17.2667 118.697 17.02 119.31 16.78V15.96C119.31 15.4933 119.283 15.1067 119.23 14.8C119.177 14.4933 119.063 14.2667 118.89 14.12C118.73 13.96 118.483 13.88 118.15 13.88C117.857 13.88 117.617 13.9467 117.43 14.08C117.257 14.2133 117.13 14.4067 117.05 14.66C116.97 14.9 116.93 15.1867 116.93 15.52V16.1L114.81 16.02C114.837 14.74 115.13 13.8 115.69 13.2C116.25 12.5867 117.117 12.28 118.29 12.28C119.437 12.28 120.25 12.5933 120.73 13.22C121.21 13.8467 121.45 14.7533 121.45 15.94V21.22C121.45 21.58 121.457 21.9267 121.47 22.26C121.497 22.5933 121.523 22.9067 121.55 23.2C121.59 23.48 121.623 23.7467 121.65 24H119.69C119.65 23.7867 119.597 23.52 119.53 23.2C119.477 22.8667 119.437 22.5667 119.41 22.3C119.277 22.7533 119.017 23.18 118.63 23.58C118.257 23.9667 117.737 24.16 117.07 24.16ZM117.91 22.32C118.123 22.32 118.323 22.26 118.51 22.14C118.697 22.02 118.863 21.8867 119.01 21.74C119.157 21.58 119.257 21.4533 119.31 21.36V18.08C118.977 18.2667 118.663 18.4533 118.37 18.64C118.077 18.8267 117.817 19.0267 117.59 19.24C117.377 19.44 117.203 19.6733 117.07 19.94C116.95 20.1933 116.89 20.4867 116.89 20.82C116.89 21.2867 116.977 21.6533 117.15 21.92C117.323 22.1867 117.577 22.32 117.91 22.32ZM123.506 24V12.44H125.646V13.58C126.032 13.22 126.459 12.9133 126.926 12.66C127.392 12.4067 127.906 12.28 128.466 12.28C128.932 12.28 129.286 12.4 129.526 12.64C129.779 12.88 129.952 13.18 130.046 13.54C130.152 13.9 130.206 14.2667 130.206 14.64V24H128.066V15.26C128.066 14.8467 128.006 14.5267 127.886 14.3C127.766 14.0733 127.519 13.96 127.146 13.96C126.906 13.96 126.652 14.0333 126.386 14.18C126.132 14.3133 125.886 14.48 125.646 14.68V24H123.506ZM134.975 24.16C134.002 24.16 133.275 23.8067 132.795 23.1C132.315 22.38 132.075 21.1667 132.075 19.46V17.22C132.075 16.34 132.148 15.5267 132.295 14.78C132.442 14.02 132.715 13.4133 133.115 12.96C133.528 12.5067 134.128 12.28 134.915 12.28C135.302 12.28 135.655 12.3667 135.975 12.54C136.295 12.7133 136.582 12.9267 136.835 13.18V7.8H138.975V24H136.835V23.26C136.582 23.5267 136.302 23.7467 135.995 23.92C135.702 24.08 135.362 24.16 134.975 24.16ZM135.515 22.48C135.715 22.48 135.928 22.4467 136.155 22.38C136.382 22.3 136.608 22.1867 136.835 22.04V14.46C136.648 14.3267 136.442 14.2133 136.215 14.12C135.988 14.0133 135.742 13.96 135.475 13.96C134.982 13.96 134.648 14.2 134.475 14.68C134.302 15.1467 134.215 15.7133 134.215 16.38V19.64C134.215 20.1733 134.242 20.66 134.295 21.1C134.362 21.5267 134.488 21.8667 134.675 22.12C134.862 22.36 135.142 22.48 135.515 22.48Z" fill="#FFFCF2"/>
</svg>
